<svg width="1212" height="862" viewBox="0 0 1212 862" fill="none" xmlns="http://www.w3.org/2000/svg">
<g opacity="0.55">
<path d="M419.704 2.13048C320.85 2.13048 263.327 69.8796 263.327 137.203C263.327 198.134 317.441 250.118 435.47 250.118C446.122 250.118 456.774 249.692 467.427 248.414L483.192 223.274C544.976 122.715 610.595 18.7482 693.257 18.7482C721.38 18.7482 729.901 36.2181 729.901 51.9836C729.901 110.359 624.656 222.848 487.879 247.561C436.748 328.093 381.356 400.53 284.206 437.174C329.372 449.531 370.277 460.609 413.739 460.609C542.42 460.609 613.151 372.833 613.151 330.224C613.151 315.737 605.056 305.936 585.455 305.936C539.011 305.936 475.949 377.52 455.922 428.652L453.366 428.226C478.505 366.016 530.489 303.806 585.881 303.806C604.629 303.806 615.282 313.18 615.282 330.224C615.282 375.816 541.567 462.739 413.739 462.739C360.903 462.739 314.885 453.365 270.571 442.287C231.37 455.07 184.926 462.739 130.385 462.739C43.8881 462.739 0.000266995 442.713 0.000266995 423.965C0.000266995 411.182 20.8789 400.53 61.358 400.53C151.69 400.53 219.013 419.278 279.093 435.895C359.199 403.938 409.052 340.45 466.148 250.544C455.922 251.822 445.27 252.248 435.044 252.248C307.641 252.248 253.953 192.595 253.953 131.237C253.953 66.4709 313.606 9.62484e-06 419.278 9.62484e-06C481.488 9.62484e-06 507.906 30.2528 507.906 63.0621C507.906 102.263 470.409 147.429 409.904 148.707V146.577C468.279 145.298 505.775 101.411 505.775 63.0621C505.775 31.5311 479.784 2.13048 419.704 2.13048ZM500.236 227.535C496.401 233.5 492.992 239.466 489.158 245.005C623.378 220.291 727.771 109.933 727.771 51.9836C727.771 40.4791 722.658 20.8787 693.257 20.8787C611.873 20.8787 562.446 127.829 500.236 227.535ZM130.385 460.609C184.073 460.609 227.961 453.791 265.458 441.009C199.413 423.539 137.203 402.66 61.358 402.66C22.1572 402.66 2.13074 412.46 2.13074 423.965C2.13074 439.73 40.0532 460.609 130.385 460.609ZM655.005 366.16C658.905 360.76 663.105 355.66 667.605 349.36L684.705 322.36C686.805 322.36 693.405 322.06 696.405 321.76L678.405 349.96C661.305 378.16 638.205 408.76 638.205 418.06C638.205 421.06 639.705 423.16 645.705 423.16C668.805 423.16 700.305 379.66 717.405 356.26L739.005 322.36C742.605 322.36 748.605 322.06 750.705 321.76L707.805 389.26C700.305 400.96 690.705 414.16 690.705 418.96C690.705 421.96 692.505 423.16 695.205 423.16C713.505 423.16 739.605 396.16 765.405 363.76C766.005 362.86 767.205 363.76 766.605 364.66C742.905 394.66 715.005 424.66 694.905 424.66C688.905 424.66 686.505 420.76 686.505 415.66C686.505 406.36 693.705 394.06 700.905 382.66L707.805 371.56C688.605 396.76 665.205 424.66 645.105 424.66C637.905 424.66 633.405 421.36 633.405 414.46C633.405 400.66 646.905 381.76 658.605 363.76L656.205 367.06C639.405 389.26 616.305 411.76 602.505 423.16L601.605 421.96C615.405 410.86 638.505 388.06 655.005 366.16ZM877.31 328.36C877.01 324.16 875.51 321.16 869.81 321.16C843.11 321.16 791.21 394.06 791.21 414.16C791.21 420.46 795.41 423.16 802.31 423.16C826.01 423.16 857.51 398.56 884.81 363.76C885.41 362.86 886.91 363.76 885.71 364.96C862.61 394.66 828.71 424.66 802.31 424.66C788.81 424.66 787.01 416.56 787.01 409.66C787.01 384.46 804.41 358.66 826.91 341.26C842.51 329.26 858.11 319.66 869.81 319.66C876.41 319.66 878.81 323.86 878.81 329.26C878.81 335.26 875.21 343.06 868.61 343.06C865.61 343.06 864.11 341.26 864.11 338.86C864.11 331.06 877.31 330.46 877.31 328.36ZM986.983 319.66C993.583 319.66 996.883 323.56 996.883 329.56C996.883 331.66 996.583 334.06 995.683 336.46L1004.68 322.36C1008.28 322.36 1014.28 322.06 1016.38 321.76L977.683 382.66C964.483 403.36 956.383 412.66 956.383 418.96C956.383 421.96 958.183 423.16 960.883 423.16C979.183 423.16 1005.28 396.16 1031.08 363.76C1031.68 362.86 1032.88 363.76 1032.28 364.66C1008.58 394.66 980.683 424.66 960.583 424.66C954.583 424.66 952.183 420.76 952.183 415.66C952.183 406.36 959.383 394.06 966.583 382.66L967.783 380.86C950.383 402.76 928.783 424.66 912.583 424.66C905.083 424.66 903.583 418.96 903.583 413.86C903.583 400.06 912.883 378.76 922.783 364.96C933.583 349.66 968.983 319.66 986.983 319.66ZM912.583 423.16C932.383 423.16 962.083 387.46 976.183 367.66L992.083 342.16C993.883 337.96 995.383 333.16 995.383 329.56C995.383 324.76 992.983 321.16 986.683 321.16C960.283 321.16 907.183 400.96 907.183 418.36C907.183 421.66 909.283 423.16 912.583 423.16ZM1057.3 424.66C1055.5 424.66 1049.8 424.66 1047.1 424.36C1037.2 423.16 1028.5 417.16 1028.5 405.16C1028.5 396.16 1033.9 392.56 1037.8 392.56C1039.9 392.56 1041.4 393.46 1041.4 395.56C1041.4 398.86 1035.1 404.86 1030.6 408.76C1031.2 415.96 1037.8 422.86 1049.5 422.86C1056.7 422.86 1066.3 416.56 1075.9 406.66C1093 389.26 1109.2 360.76 1109.2 338.56C1109.2 331.36 1108 325.96 1105.6 320.86C1099 329.86 1082.8 350.26 1069.3 367.36C1068.4 368.56 1066.9 367.96 1067.8 366.76C1076.8 355.66 1096 331.06 1105 319.36C1103.2 315.46 1103.2 313.66 1103.2 310.96C1103.2 306.46 1106.2 301.06 1111 301.06C1114.9 301.06 1115.2 303.46 1115.2 304.96C1115.2 308.56 1111.3 314.26 1106.5 319.66C1110.7 328.96 1112.5 339.16 1112.5 349.36C1112.5 382.66 1092.4 415.96 1061.8 423.16C1084.9 421.36 1106.5 409.06 1126.3 386.56C1132.9 379.06 1139.2 371.56 1145.5 363.76C1146.1 362.86 1147.3 363.76 1146.7 364.66C1141 371.56 1134.4 379.66 1127.2 387.76C1106.5 411.16 1083.4 424.66 1057.3 424.66ZM768.25 384.643C597.386 384.643 385.19 735.746 176.404 861.018L175.552 858.887C241.17 815.852 269.292 741.711 310.624 657.344C344.285 588.317 381.356 529.516 424.391 485.628C409.052 497.132 389.451 507.785 369.851 507.785C349.398 507.785 343.433 492.871 343.433 471.141C343.433 462.619 345.564 446.853 345.564 437.479C345.564 413.618 331.928 385.922 273.553 385.922C128.255 385.922 40.0532 520.568 40.0532 607.065C40.0532 656.066 65.6189 682.484 109.081 682.484C202.822 682.484 269.719 574.682 269.719 512.046C269.719 485.628 258.214 468.584 233.5 468.584C182.369 468.584 118.455 527.385 110.785 597.265H108.655C115.472 526.959 181.091 466.454 233.5 466.454C262.901 466.454 276.536 488.611 276.536 518.863C276.536 583.204 213.9 684.614 109.081 684.614C65.6189 684.614 37.9227 657.77 37.9227 607.065C37.9227 519.715 126.124 383.791 273.553 383.791C337.042 383.791 357.068 415.748 357.068 446.001C357.068 458.358 354.512 471.141 354.512 485.628C354.512 497.132 358.346 505.228 370.703 505.228C404.365 505.228 437.6 472.419 456.774 456.227L458.053 457.932C390.304 511.62 365.59 583.63 325.963 665.44C293.154 733.615 246.709 804.347 197.708 844.826C412.887 695.267 602.499 382.513 768.25 382.513C833.017 382.513 862.843 416.6 862.843 453.671C862.843 498.411 819.381 547.412 742.684 547.412C732.458 547.412 714.562 545.707 701.779 543.151L702.205 541.02C714.136 543.577 732.032 545.281 742.684 545.281C813.416 545.281 855.173 495.854 855.173 451.54C855.173 416.174 828.329 384.643 768.25 384.643ZM402.275 821.66C396.275 821.66 393.875 817.76 393.875 812.66C393.875 803.36 401.075 791.06 408.275 779.66L417.875 764.06C401.075 786.26 377.975 808.76 364.175 820.16L363.275 818.96C377.075 807.86 400.175 785.06 416.675 763.16L428.075 748.16L446.375 719.36C449.975 719.36 455.975 719.06 458.075 718.76L415.175 786.26C407.675 797.96 398.075 811.16 398.075 815.96C398.075 818.96 399.875 820.16 402.575 820.16C420.875 820.16 446.975 793.16 472.775 760.76C473.375 759.86 474.575 760.76 473.975 761.66C450.275 791.66 422.375 821.66 402.275 821.66ZM478.175 665.96C482.375 665.96 483.875 668.36 483.875 671.36C483.875 676.46 479.075 683.36 472.475 683.36C468.575 683.36 467.075 680.96 467.075 677.96C467.075 672.86 471.875 665.96 478.175 665.96ZM609.374 737.96C597.974 772.16 557.174 821.66 527.174 821.66C521.474 821.66 517.274 819.26 517.274 812.36C517.274 786.86 565.874 736.16 565.874 722.36C565.874 719.36 563.474 718.16 561.074 718.16C549.674 718.16 536.774 731.96 510.674 764.66C510.074 765.26 508.574 764.96 509.474 763.76C536.474 729.56 549.374 716.66 561.074 716.66C567.674 716.66 570.374 721.16 570.374 725.36C570.374 752.06 521.474 802.76 521.474 815.96C521.474 818.06 522.674 820.16 527.474 820.16C554.174 820.16 591.974 777.26 606.674 740.66C600.374 737.66 599.474 731.66 599.474 727.46C599.474 721.46 602.774 716.66 607.274 716.66C610.274 716.66 612.374 719.36 612.374 723.86C612.374 726.56 611.774 731.36 609.374 737.96ZM653.413 740.36C684.613 740.36 712.813 716.66 729.913 716.66C734.713 716.66 736.513 719.06 736.513 721.76C736.513 734.96 702.913 761.96 671.413 772.76C660.913 788.66 653.713 803.96 653.713 811.46C653.713 816.26 656.713 820.16 664.213 820.16C688.813 820.16 716.113 795.56 743.413 760.76C744.013 759.86 745.513 760.76 744.313 761.96C721.213 791.66 691.213 821.66 664.513 821.66C650.713 821.66 648.313 812.96 648.313 806.96C648.313 794.66 654.313 777.26 664.213 763.76C676.513 746.96 696.313 731.96 711.313 723.56C695.413 730.76 675.313 741.86 653.713 741.86C650.113 741.86 645.313 741.56 642.013 738.26C640.813 737.06 642.013 736.16 642.913 737.06C644.713 738.86 648.613 740.36 653.413 740.36ZM730.513 718.16C715.213 718.16 690.313 745.16 672.913 770.66C705.613 758.66 735.013 732.86 735.013 721.76C735.013 720.26 734.113 718.16 730.513 718.16ZM767.954 821.66C761.954 821.66 759.554 817.76 759.554 812.66C759.554 803.36 766.754 791.06 773.954 779.66L792.254 750.56C788.054 756.26 783.854 761.36 781.154 764.66C780.554 765.26 779.054 764.96 779.954 763.76C788.954 752.36 798.554 739.76 807.254 727.16L812.054 719.36C815.654 719.36 821.654 719.06 823.754 718.76L780.854 786.26C773.354 797.96 763.754 811.16 763.754 815.96C763.754 818.96 765.554 820.16 768.254 820.16C786.554 820.16 812.654 793.16 838.454 760.76C839.054 759.86 840.254 760.76 839.654 761.66C815.954 791.66 788.054 821.66 767.954 821.66ZM843.854 665.96C848.054 665.96 849.554 668.36 849.554 671.36C849.554 676.46 844.754 683.36 838.154 683.36C834.254 683.36 832.754 680.96 832.754 677.96C832.754 672.86 837.554 665.96 843.854 665.96ZM885.411 821.66C882.111 821.66 876.411 819.86 876.411 812.06C876.411 798.86 888.111 784.46 897.711 770.66C912.111 749.96 917.811 741.56 917.811 733.76C917.811 728.66 913.611 724.16 910.311 719.66C901.911 731.96 887.211 750.86 876.111 764.66C875.511 765.26 874.011 764.96 874.911 763.76C885.711 750.26 900.711 731.06 909.411 718.16C908.511 716.36 907.611 714.56 907.611 712.46C907.611 703.16 914.511 698.06 918.711 698.06C920.511 698.06 921.711 698.96 921.711 700.76C921.711 705.26 914.511 713.96 911.211 718.46L915.711 724.76C919.611 730.16 922.011 734.66 922.011 740.66C922.011 746.96 920.211 756.26 902.511 781.16C894.711 792.26 880.611 809.96 880.611 815.96C880.611 818.06 881.811 820.16 885.411 820.16C903.111 820.16 929.811 793.16 955.611 760.76C956.211 759.86 957.411 760.76 956.811 761.66C933.111 791.66 905.211 821.66 885.411 821.66ZM993.334 761.96C1002.33 749.36 1038.03 716.66 1055.73 716.66C1063.23 716.66 1066.53 721.16 1066.53 727.76C1066.53 755.96 1022.43 821.66 990.334 821.66C980.734 821.66 976.534 815.66 976.534 805.46C976.534 792.56 983.434 775.76 993.334 761.96ZM1056.03 718.16C1033.53 718.16 981.334 789.86 981.334 812.36C981.334 817.46 984.934 820.16 990.634 820.16C1017.03 820.16 1053.93 771.26 1062.63 740.36C1058.73 738.56 1056.93 734.96 1056.93 731.36C1056.93 727.46 1059.03 723.56 1063.83 722.36C1062.33 719.06 1059.63 718.16 1056.03 718.16ZM1110.3 740.36C1128.3 740.36 1150.8 732.56 1167.3 716.06C1165.8 712.46 1165.8 709.46 1165.8 707.96C1165.8 703.46 1168.8 698.06 1173.6 698.06C1177.5 698.06 1178.1 700.76 1178.1 702.26C1178.1 706.46 1174.5 712.46 1169.1 716.66C1173.9 726.86 1176 737.96 1176 748.76C1176 781.46 1156.2 812.96 1126.2 820.16C1149.3 818.36 1170.6 805.76 1190.7 783.56C1197.3 776.36 1203.6 768.56 1209.9 760.76C1210.5 759.86 1211.7 760.76 1211.1 761.66C1205.4 768.56 1198.8 776.66 1191.6 784.76C1170.9 808.16 1146.9 821.66 1121.7 821.66C1119.9 821.66 1114.2 821.66 1111.5 821.36C1101.6 820.16 1092.9 814.16 1092.9 802.16C1092.9 793.16 1098.3 789.56 1102.2 789.56C1104.3 789.56 1105.8 790.46 1105.8 792.56C1105.8 795.86 1099.5 801.86 1095 805.76C1095.6 812.96 1102.5 819.56 1113.9 819.56C1121.1 819.56 1130.7 813.56 1140.3 803.66C1157.1 786.56 1171.8 758.66 1171.8 735.56C1171.8 729.26 1170.6 722.96 1168.2 717.56C1146.6 738.26 1122.3 741.86 1110.3 741.86C1106.4 741.86 1101.6 741.56 1098.3 738.26C1097.1 737.06 1098.3 736.16 1099.2 737.06C1101 738.86 1104.3 740.36 1110.3 740.36Z" fill="#264F9F"/>
</g>
</svg>
